<mxfile host="app.diagrams.net" agent="Mozilla/5.0 (Windows NT 10.0; Win64; x64) AppleWebKit/537.36 (KHTML, like Gecko) Chrome/138.0.0.0 Safari/537.36" version="28.1.0">
  <diagram name="Page-1" id="CxhLAaTgzb3CWt7LFI4L">
    <mxGraphModel dx="786" dy="459" grid="1" gridSize="10" guides="1" tooltips="1" connect="1" arrows="1" fold="1" page="1" pageScale="1" pageWidth="850" pageHeight="1100" math="0" shadow="0">
      <root>
        <mxCell id="0" />
        <mxCell id="1" parent="0" />
        <mxCell id="dAbXv6bJuwovhzzVxw9j-12" style="edgeStyle=orthogonalEdgeStyle;rounded=0;orthogonalLoop=1;jettySize=auto;html=1;entryX=0.5;entryY=0;entryDx=0;entryDy=0;exitX=0.5;exitY=1;exitDx=0;exitDy=0;exitPerimeter=0;" edge="1" parent="1" source="dAbXv6bJuwovhzzVxw9j-1" target="dAbXv6bJuwovhzzVxw9j-3">
          <mxGeometry relative="1" as="geometry">
            <mxPoint x="170" y="160" as="sourcePoint" />
          </mxGeometry>
        </mxCell>
        <mxCell id="dAbXv6bJuwovhzzVxw9j-1" value="Online Shopping" style="ellipse;whiteSpace=wrap;html=1;fillColor=#1ba1e2;fontColor=#ffffff;strokeColor=#006EAF;" vertex="1" parent="1">
          <mxGeometry x="330" y="80" width="120" height="80" as="geometry" />
        </mxCell>
        <mxCell id="dAbXv6bJuwovhzzVxw9j-14" style="edgeStyle=orthogonalEdgeStyle;rounded=0;orthogonalLoop=1;jettySize=auto;html=1;exitX=0.5;exitY=1;exitDx=0;exitDy=0;entryX=0.5;entryY=0;entryDx=0;entryDy=0;" edge="1" parent="1" source="dAbXv6bJuwovhzzVxw9j-2" target="dAbXv6bJuwovhzzVxw9j-5">
          <mxGeometry relative="1" as="geometry" />
        </mxCell>
        <mxCell id="dAbXv6bJuwovhzzVxw9j-2" value="Electronics" style="rounded=0;whiteSpace=wrap;html=1;fillColor=#1ba1e2;fontColor=#ffffff;strokeColor=#006EAF;" vertex="1" parent="1">
          <mxGeometry x="120" y="210" width="120" height="60" as="geometry" />
        </mxCell>
        <mxCell id="dAbXv6bJuwovhzzVxw9j-16" style="edgeStyle=orthogonalEdgeStyle;rounded=0;orthogonalLoop=1;jettySize=auto;html=1;exitX=0.5;exitY=1;exitDx=0;exitDy=0;" edge="1" parent="1" source="dAbXv6bJuwovhzzVxw9j-3" target="dAbXv6bJuwovhzzVxw9j-6">
          <mxGeometry relative="1" as="geometry" />
        </mxCell>
        <mxCell id="dAbXv6bJuwovhzzVxw9j-20" style="edgeStyle=orthogonalEdgeStyle;rounded=0;orthogonalLoop=1;jettySize=auto;html=1;entryX=0;entryY=0.5;entryDx=0;entryDy=0;" edge="1" parent="1" source="dAbXv6bJuwovhzzVxw9j-3" target="dAbXv6bJuwovhzzVxw9j-4">
          <mxGeometry relative="1" as="geometry" />
        </mxCell>
        <mxCell id="dAbXv6bJuwovhzzVxw9j-21" style="edgeStyle=orthogonalEdgeStyle;rounded=0;orthogonalLoop=1;jettySize=auto;html=1;exitX=0;exitY=0.5;exitDx=0;exitDy=0;entryX=1;entryY=0.5;entryDx=0;entryDy=0;labelBackgroundColor=light-dark(#FFFFFF,#000000);" edge="1" parent="1" source="dAbXv6bJuwovhzzVxw9j-3" target="dAbXv6bJuwovhzzVxw9j-2">
          <mxGeometry relative="1" as="geometry" />
        </mxCell>
        <mxCell id="dAbXv6bJuwovhzzVxw9j-3" value="Fashion" style="rounded=0;whiteSpace=wrap;html=1;fillColor=#1ba1e2;fontColor=#ffffff;strokeColor=#006EAF;" vertex="1" parent="1">
          <mxGeometry x="330" y="210" width="120" height="60" as="geometry" />
        </mxCell>
        <mxCell id="dAbXv6bJuwovhzzVxw9j-18" style="edgeStyle=orthogonalEdgeStyle;rounded=0;orthogonalLoop=1;jettySize=auto;html=1;exitX=0.5;exitY=1;exitDx=0;exitDy=0;entryX=0.5;entryY=0;entryDx=0;entryDy=0;" edge="1" parent="1" source="dAbXv6bJuwovhzzVxw9j-4" target="dAbXv6bJuwovhzzVxw9j-7">
          <mxGeometry relative="1" as="geometry" />
        </mxCell>
        <mxCell id="dAbXv6bJuwovhzzVxw9j-4" value="Home and kitchen" style="rounded=0;whiteSpace=wrap;html=1;fillColor=#1ba1e2;fontColor=#ffffff;strokeColor=#006EAF;" vertex="1" parent="1">
          <mxGeometry x="520" y="210" width="120" height="60" as="geometry" />
        </mxCell>
        <mxCell id="dAbXv6bJuwovhzzVxw9j-15" style="edgeStyle=orthogonalEdgeStyle;rounded=0;orthogonalLoop=1;jettySize=auto;html=1;exitX=0.5;exitY=1;exitDx=0;exitDy=0;" edge="1" parent="1" source="dAbXv6bJuwovhzzVxw9j-5" target="dAbXv6bJuwovhzzVxw9j-9">
          <mxGeometry relative="1" as="geometry" />
        </mxCell>
        <mxCell id="dAbXv6bJuwovhzzVxw9j-5" value="Apple&lt;div&gt;I phone&amp;nbsp;&lt;/div&gt;" style="rounded=0;whiteSpace=wrap;html=1;fillColor=#1ba1e2;fontColor=#ffffff;strokeColor=#006EAF;" vertex="1" parent="1">
          <mxGeometry x="120" y="320" width="120" height="60" as="geometry" />
        </mxCell>
        <mxCell id="dAbXv6bJuwovhzzVxw9j-6" value="Nike AIR&amp;nbsp;&lt;div&gt;Max&amp;nbsp;&lt;/div&gt;&lt;div&gt;Shoe&lt;/div&gt;" style="rounded=0;whiteSpace=wrap;html=1;fillColor=#1ba1e2;fontColor=#ffffff;strokeColor=#006EAF;" vertex="1" parent="1">
          <mxGeometry x="330" y="320" width="120" height="60" as="geometry" />
        </mxCell>
        <mxCell id="dAbXv6bJuwovhzzVxw9j-19" style="edgeStyle=orthogonalEdgeStyle;rounded=0;orthogonalLoop=1;jettySize=auto;html=1;exitX=0.5;exitY=1;exitDx=0;exitDy=0;entryX=0.5;entryY=0;entryDx=0;entryDy=0;" edge="1" parent="1" source="dAbXv6bJuwovhzzVxw9j-7" target="dAbXv6bJuwovhzzVxw9j-11">
          <mxGeometry relative="1" as="geometry" />
        </mxCell>
        <mxCell id="dAbXv6bJuwovhzzVxw9j-7" value="Kithen Aid&lt;div&gt;STand MIxer&lt;/div&gt;" style="rounded=0;whiteSpace=wrap;html=1;fillColor=#1ba1e2;fontColor=#ffffff;strokeColor=#006EAF;" vertex="1" parent="1">
          <mxGeometry x="520" y="320" width="120" height="60" as="geometry" />
        </mxCell>
        <mxCell id="dAbXv6bJuwovhzzVxw9j-9" value="Samsung" style="rounded=0;whiteSpace=wrap;html=1;fillColor=#1ba1e2;fontColor=#ffffff;strokeColor=#006EAF;" vertex="1" parent="1">
          <mxGeometry x="120" y="440" width="120" height="60" as="geometry" />
        </mxCell>
        <mxCell id="dAbXv6bJuwovhzzVxw9j-10" value="Levi&#39;s&lt;div&gt;Jeans&lt;/div&gt;" style="rounded=0;whiteSpace=wrap;html=1;fillColor=#1ba1e2;fontColor=#ffffff;strokeColor=#006EAF;" vertex="1" parent="1">
          <mxGeometry x="340" y="440" width="120" height="60" as="geometry" />
        </mxCell>
        <mxCell id="dAbXv6bJuwovhzzVxw9j-11" value="Casper&lt;div&gt;Pillow&lt;/div&gt;" style="rounded=0;whiteSpace=wrap;html=1;fillColor=#1ba1e2;fontColor=#ffffff;strokeColor=#006EAF;" vertex="1" parent="1">
          <mxGeometry x="520" y="440" width="120" height="60" as="geometry" />
        </mxCell>
        <mxCell id="dAbXv6bJuwovhzzVxw9j-17" style="edgeStyle=orthogonalEdgeStyle;rounded=0;orthogonalLoop=1;jettySize=auto;html=1;exitX=0.5;exitY=1;exitDx=0;exitDy=0;entryX=0.417;entryY=0.167;entryDx=0;entryDy=0;entryPerimeter=0;" edge="1" parent="1" source="dAbXv6bJuwovhzzVxw9j-6" target="dAbXv6bJuwovhzzVxw9j-10">
          <mxGeometry relative="1" as="geometry" />
        </mxCell>
      </root>
    </mxGraphModel>
  </diagram>
</mxfile>
